<svg width="36" height="35" viewBox="0 0 36 35" fill="none" xmlns="http://www.w3.org/2000/svg">
<path d="M8.21798 26.926L6.11798 31.924C5.79798 32.688 6.15598 33.568 6.91998 33.888C7.68398 34.208 8.56398 33.85 8.88398 33.086L10.984 28.088C11.304 27.324 10.946 26.444 10.182 26.124C9.41798 25.804 8.53798 26.162 8.21798 26.926ZM24.218 26.926L22.118 31.924C21.798 32.688 22.156 33.568 22.92 33.888C23.684 34.208 24.564 33.85 24.884 33.086L26.984 28.088C27.304 27.324 26.946 26.444 26.182 26.124C25.418 25.804 24.538 26.162 24.218 26.926ZM16.218 24.926L14.118 29.924C13.798 30.688 14.156 31.568 14.92 31.888C15.684 32.208 16.564 31.85 16.884 31.086L18.984 26.088C19.304 25.324 18.946 24.444 18.182 24.124C17.418 23.804 16.538 24.162 16.218 24.926Z" fill="#66AFEB"/>
<path d="M8 22C3.582 22 0 18.418 0 14C0 9.582 3.582 6 8 6C8.834 6 9.636 6.128 10.392 6.364C11.518 2.68 14.946 0 19 0C23.97 0 28 4.03 28 9C28 9.47 27.964 9.93 27.894 10.38C28.55 10.134 29.258 10 30 10C33.314 10 36 12.686 36 16C36 19.314 33.314 22 30 22H8Z" fill="url(#paint0_linear_2_526)"/>
<path d="M10 9C10 13.97 14.03 18 19 18C23.502 18 27.23 14.696 27.894 10.38C28.55 10.134 29.258 10 30 10C33.314 10 36 12.686 36 16C36 19.314 33.314 22 30 22H8C3.582 22 0 18.418 0 14C0 9.582 3.582 6 8 6C8.834 6 9.636 6.128 10.392 6.364C10.136 7.198 10 8.082 10 9Z" fill="url(#paint1_radial_2_526)"/>
<defs>
<linearGradient id="paint0_linear_2_526" x1="18" y1="0" x2="18" y2="22" gradientUnits="userSpaceOnUse">
<stop stop-color="#9FC7FF"/>
<stop offset="1" stop-color="#9BC1F5"/>
</linearGradient>
<radialGradient id="paint1_radial_2_526" cx="0" cy="0" r="1" gradientUnits="userSpaceOnUse" gradientTransform="translate(4.75395 -30.6966) rotate(-90) scale(20.9574 6.69705)">
<stop stop-color="#486DA8" stop-opacity="0.4"/>
<stop offset="1" stop-color="#486DA8" stop-opacity="0"/>
</radialGradient>
</defs>
</svg>
