<svg width="36" height="35" viewBox="0 0 36 35" fill="none" xmlns="http://www.w3.org/2000/svg">
<path d="M10.218 26.926L8.11798 31.924C7.79798 32.688 8.15598 33.568 8.91998 33.888C9.68398 34.208 10.564 33.85 10.884 33.086L12.984 28.088C13.304 27.324 12.946 26.444 12.182 26.124C11.418 25.804 10.538 26.162 10.218 26.926ZM20.218 24.926L18.118 29.924C17.798 30.688 18.156 31.568 18.92 31.888C19.684 32.208 20.564 31.85 20.884 31.086L22.984 26.088C23.304 25.324 22.946 24.444 22.182 24.124C21.418 23.804 20.538 24.162 20.218 24.926Z" fill="#66AFEB"/>
<path d="M8 22C3.582 22 0 18.418 0 14C0 9.582 3.582 6 8 6C8.834 6 9.636 6.128 10.392 6.364C11.518 2.68 14.946 0 19 0C23.97 0 28 4.03 28 9C28 9.47 27.964 9.93 27.894 10.38C28.55 10.134 29.258 10 30 10C33.314 10 36 12.686 36 16C36 19.314 33.314 22 30 22H8Z" fill="url(#paint0_linear_2_538)"/>
<path d="M10 9C10 13.97 14.03 18 19 18C23.502 18 27.23 14.696 27.894 10.38C28.55 10.134 29.258 10 30 10C33.314 10 36 12.686 36 16C36 19.314 33.314 22 30 22H8C3.582 22 0 18.418 0 14C0 9.582 3.582 6 8 6C8.834 6 9.636 6.128 10.392 6.364C10.136 7.198 10 8.082 10 9Z" fill="url(#paint1_radial_2_538)"/>
<defs>
<linearGradient id="paint0_linear_2_538" x1="18" y1="0" x2="18" y2="22" gradientUnits="userSpaceOnUse">
<stop stop-color="#9FC7FF"/>
<stop offset="1" stop-color="#9BC1F5"/>
</linearGradient>
<radialGradient id="paint1_radial_2_538" cx="0" cy="0" r="1" gradientUnits="userSpaceOnUse" gradientTransform="translate(4.75395 -30.6966) rotate(-90) scale(20.9574 6.69705)">
<stop stop-color="#486DA8" stop-opacity="0.4"/>
<stop offset="1" stop-color="#486DA8" stop-opacity="0"/>
</radialGradient>
</defs>
</svg>
