<svg width="44" height="47" viewBox="0 0 44 47" fill="none" xmlns="http://www.w3.org/2000/svg">
<path d="M28 24C32.4183 24 36 20.4183 36 16C36 11.5817 32.4183 8 28 8C23.5817 8 20 11.5817 20 16C20 20.4183 23.5817 24 28 24Z" fill="url(#paint0_linear_2_531)"/>
<path d="M26.96 1.45999L27.48 4.41399C27.828 6.38399 24.872 6.90399 24.526 4.93399L24.006 1.97999C23.658 0.00998566 26.614 -0.510014 26.96 1.45999ZM37.546 4.98199L35.826 7.43999C34.678 9.07799 32.222 7.35799 33.368 5.71999L35.088 3.26199C36.236 1.62399 38.692 3.34399 37.546 4.98199ZM16.984 6.45399L19.442 8.17399C21.08 9.32199 19.36 11.778 17.722 10.632L15.264 8.91199C13.626 7.76399 15.346 5.30799 16.984 6.45399ZM38.282 21.366L40.74 23.086C42.378 24.234 40.658 26.69 39.02 25.544L36.562 23.824C34.924 22.676 36.644 20.22 38.282 21.366ZM42.542 14.958L39.588 15.478C37.618 15.826 37.098 12.87 39.068 12.524L42.022 12.004C43.992 11.656 44.512 14.612 42.542 14.958Z" fill="#FFB300"/>
<path d="M10.218 38.926L8.11798 43.924C7.79798 44.688 8.15598 45.568 8.91998 45.888C9.68398 46.208 10.564 45.85 10.884 45.086L12.984 40.088C13.304 39.324 12.946 38.444 12.182 38.124C11.418 37.804 10.538 38.162 10.218 38.926ZM20.218 36.926L18.118 41.924C17.798 42.688 18.156 43.568 18.92 43.888C19.684 44.208 20.564 43.85 20.884 43.086L22.984 38.088C23.304 37.324 22.946 36.444 22.182 36.124C21.418 35.804 20.538 36.162 20.218 36.926Z" fill="#66AFEB"/>
<path d="M8 34C3.582 34 0 30.418 0 26C0 21.582 3.582 18 8 18C8.834 18 9.636 18.128 10.392 18.364C11.518 14.68 14.946 12 19 12C23.97 12 28 16.03 28 21C28 21.47 27.964 21.93 27.894 22.38C28.55 22.134 29.258 22 30 22C33.314 22 36 24.686 36 28C36 31.314 33.314 34 30 34H8Z" fill="url(#paint1_linear_2_531)"/>
<path d="M10 21C10 25.97 14.03 30 19 30C23.502 30 27.23 26.696 27.894 22.38C28.55 22.134 29.258 22 30 22C33.314 22 36 24.686 36 28C36 31.314 33.314 34 30 34H8C3.582 34 0 30.418 0 26C0 21.582 3.582 18 8 18C8.834 18 9.636 18.128 10.392 18.364C10.136 19.198 10 20.082 10 21Z" fill="url(#paint2_radial_2_531)"/>
<defs>
<linearGradient id="paint0_linear_2_531" x1="36" y1="8" x2="24.7832" y2="19.0723" gradientUnits="userSpaceOnUse">
<stop stop-color="#FFB301"/>
<stop offset="1" stop-color="#FFC533"/>
</linearGradient>
<linearGradient id="paint1_linear_2_531" x1="18" y1="12" x2="18" y2="34" gradientUnits="userSpaceOnUse">
<stop stop-color="#9FC7FF"/>
<stop offset="1" stop-color="#9BC1F5"/>
</linearGradient>
<radialGradient id="paint2_radial_2_531" cx="0" cy="0" r="1" gradientUnits="userSpaceOnUse" gradientTransform="translate(11.0679 -22.6966) rotate(-90) scale(20.9574 6.69705)">
<stop stop-color="#486DA8" stop-opacity="0.4"/>
<stop offset="1" stop-color="#486DA8" stop-opacity="0"/>
</radialGradient>
</defs>
</svg>
